<svg xmlns="http://www.w3.org/2000/svg" width="200" height="200" viewBox="0 0 200 200">
  <defs>
    <radialGradient id="lavenderStar" cx="50%" cy="50%" r="50%">
      <stop offset="0%" stop-color="#F2DEFF" stop-opacity="0.6"/>
      <stop offset="100%" stop-color="#D49EFF" stop-opacity="0.1"/>
    </radialGradient>
  </defs>

  <!-- Star 1 -->
  <polygon points="100,20 110,60 150,60 115,80 130,120 100,95 70,120 85,80 50,60 90,60"
    fill="url(#lavenderStar)" stroke="#E8C8FF" stroke-width="1.5" stroke-opacity="0.5">
    <animateTransform attributeName="transform" type="translate" values="0 0; 10 -20; -10 10; 0 0" dur="28s" repeatCount="indefinite"/>
    <animate attributeName="opacity" values="0.2;0.5;0.2" dur="6s" repeatCount="indefinite"/>
  </polygon>

  <!-- Star 2 -->
  <polygon points="40,100 45,115 60,115 48,125 52,140 40,130 28,140 32,125 20,115 35,115"
    fill="url(#lavenderStar)" stroke="#F2DEFF" stroke-width="1.2" stroke-opacity="0.45">
    <animateTransform attributeName="transform" type="translate" values="0 0; -15 15; 5 -10; 0 0" dur="32s" repeatCount="indefinite"/>
    <animate attributeName="opacity" values="0.25;0.6;0.25" dur="8s" repeatCount="indefinite"/>
  </polygon>

  <!-- Star 3 -->
  <polygon points="160,140 165,150 180,150 168,158 172,170 160,163 148,170 152,158 140,150 155,150"
    fill="url(#lavenderStar)" stroke="#E8C8FF" stroke-width="1.3" stroke-opacity="0.4">
    <animateTransform attributeName="transform" type="translate" values="0 0; 12 -8; -8 6; 0 0" dur="25s" repeatCount="indefinite"/>
    <animate attributeName="opacity" values="0.2;0.5;0.2" dur="7s" repeatCount="indefinite"/>
  </polygon>
</svg>
