<svg xmlns="http://www.w3.org/2000/svg" width="48" height="48" viewBox="0 0 48 48">
  <defs>
    <filter id="idleGlow" x="-50%" y="-50%" width="200%" height="200%">
      <feDropShadow dx="0" dy="0" stdDeviation="2.5" flood-color="#D49EFF" flood-opacity="0.45"/>
    </filter>
  </defs>
  <g filter="url(#idleGlow)">
    <circle cx="24" cy="24" r="22.5" fill="rgba(212,158,255,0.10)" stroke="#D49EFF" stroke-opacity="0.6" stroke-width="1.5"/>
  </g>
  <g transform="translate(12.000,12.000) scale(0.0469)" fill="#D49EFF" stroke="#D49EFF" opacity="0.9">
    <ns0:path xmlns:ns0="http://www.w3.org/2000/svg" d="M449.446,0c34.525,0 62.554,28.03 62.554,62.554l0,386.892c0,34.524 -28.03,62.554 -62.554,62.554l-106.468,0l0,-192.915l66.6,0l12.672,-82.621l-79.272,0l0,-53.617c0,-22.603 11.073,-44.636 46.58,-44.636l36.042,0l0,-70.34c0,0 -32.71,-5.582 -63.982,-5.582c-65.288,0 -107.96,39.569 -107.96,111.204l0,62.971l-72.573,0l0,82.621l72.573,0l0,192.915l-191.104,0c-34.524,0 -62.554,-28.03 -62.554,-62.554l0,-386.892c0,-34.524 28.029,-62.554 62.554,-62.554l386.892,0Z" />
  </g>
</svg>